Coordinates
version=1
nRows=27
nColumns=26
inDegrees=yes

Units are S.I. units (second, meters, Newtons, ...)
If the header above contains a line with 'inDegrees', this indicates whether rotational values are in degrees (yes) or radians (no).

endheader
time	pelvis_tilt	pelvis_list	pelvis_rotation	pelvis_tx	pelvis_ty	pelvis_tz	hip_flexion_r	hip_adduction_r	hip_rotation_r	knee_angle_r	knee_angle_r_beta	hip_flexion_l	hip_adduction_l	hip_rotation_l	knee_angle_l	knee_angle_l_beta	lumbar_extension	lumbar_bending	lumbar_rotation	ankle_angle_r	subtalar_angle_r	mtp_angle_r	ankle_angle_l	subtalar_angle_l	mtp_angle_l
      1.57333333	     -7.69726302	     -2.57340509	     -0.34110115	     -0.50398739	      0.80190661	      0.37822619	     -8.73717900	      3.98032399	      2.40594119	     15.92677726	      0.27797470	     35.99006888	     -1.74153861	     -0.66269636	     13.67631975	      0.23869681	     -7.43167663	      4.15520082	      6.91555914	      8.43540287	     -4.96696411	      0.00000000	      1.94958376	    -13.02519431	      0.00000000
      1.58000000	     -7.49737211	     -2.34168399	     -0.20851022	     -0.49435706	      0.80123559	      0.37768740	     -9.17934860	      3.68668617	      2.04031671	     16.77202362	      0.29272703	     35.83222782	     -1.29779884	     -0.81109427	     14.34272618	      0.25032780	     -7.53564422	      3.83609046	      6.81577411	      7.77783256	     -5.12822991	      0.00000000	      1.65866208	    -13.07749290	      0.00000000
      1.58666667	     -7.32645965	     -2.01590171	     -0.06918794	     -0.48463337	      0.80057971	      0.37716190	     -9.50578837	      3.29130287	      1.62425199	     17.77517177	      0.31023527	     35.65657486	     -0.75818700	     -0.84585040	     15.06659730	      0.26296173	     -7.60227690	      3.39111750	      6.70179899	      7.03648763	     -5.37622635	      0.00000000	      1.24857629	    -13.15699390	      0.00000000
      1.59333333	     -7.22337167	     -1.76812991	      0.05155818	     -0.47480775	      0.79992246	      0.37675200	     -9.86166184	      3.04390094	      1.68116543	     18.54749588	      0.32371487	     35.51958873	     -0.29267390	     -0.54465121	     15.86377638	      0.27687513	     -7.57858859	      3.00659292	      6.70373799	      6.56087326	     -5.39793013	      0.00000000	      0.93152169	    -13.11915281	      0.00000000
      1.60000000	     -7.14067981	     -1.25182181	      0.17282615	     -0.46510853	      0.79915259	      0.37619292	     -9.71047302	      2.35151413	      0.65463096	     20.25713450	      0.35355369	     35.46354848	      0.39983868	     -0.66065507	     16.83478869	      0.29382249	     -7.54076851	      2.32900333	      6.44852411	      5.22592035	     -6.07740389	      0.00000000	     -0.12273090	    -13.77085211	      0.00000000
      1.60666667	     -7.08557156	     -0.87633040	      0.29398142	     -0.45537195	      0.79840946	      0.37570661	     -9.62326116	      1.87188027	      0.14672805	     21.72892886	      0.37924135	     35.43017610	      0.96579070	     -0.44104279	     17.88205370	      0.31210071	     -7.46867345	      1.81006367	      6.33183098	      4.16524933	     -6.31267775	      0.00000000	     -0.83303021	    -14.15958182	      0.00000000
      1.61333333	     -6.92027444	     -0.51873864	      0.36848125	     -0.44568960	      0.79778006	      0.37524869	     -9.59187739	      1.38535240	     -0.34477464	     23.27326582	      0.40619512	     35.34365199	      1.47665034	     -0.21599361	     19.16011666	      0.33440712	     -7.55788005	      1.33356188	      6.21979190	      3.13501512	     -6.38713260	      0.00000000	     -1.42888595	    -14.37045516	      0.00000000
      1.62000000	     -7.14028258	     -0.08932816	      0.40770537	     -0.43606208	      0.79678823	      0.37483352	     -8.97656738	      0.79943021	     -0.78384710	     25.10804712	      0.43821809	     35.63244879	      2.05579968	      0.11578762	     20.37953434	      0.35568997	     -7.17535939	      0.74428976	      6.16304513	      1.96570943	     -6.72246750	      0.00000000	     -2.42658081	    -15.08386339	      0.00000000
      1.62666667	     -6.89174810	      0.28390311	      0.49823043	     -0.42641103	      0.79633055	      0.37443257	     -8.91447515	      0.29327991	     -1.20520302	     26.78156515	      0.46742649	     35.44984885	      2.56835641	      0.41132970	     21.75089056	      0.37962466	     -7.39076574	      0.23416634	      6.04963332	      0.83363820	     -6.64344217	      0.00000000	     -2.75654916	    -15.19271375	      0.00000000
      1.63333333	     -7.13216358	      0.90308467	      0.47833803	     -0.41674232	      0.79541913	      0.37398601	     -8.09909046	     -0.58068829	     -1.68704175	     28.85704114	      0.50365038	     35.68216983	      3.29699510	      0.71795801	     22.91998909	      0.40002927	     -6.98143398	     -0.56791014	      5.95247743	     -0.61397467	     -6.82722405	      0.00000000	     -3.34804607	    -15.64298529	      0.00000000
      1.64000000	     -7.20643087	      1.38980956	      0.47499336	     -0.40723048	      0.79470139	      0.37361175	     -7.43030731	     -1.28494956	     -2.02164836	     30.89770193	      0.53926663	     35.79900164	      3.87068090	      0.95529025	     24.22686577	      0.42283858	     -6.81638879	     -1.19663516	      5.88530381	     -1.97225573	     -6.90274367	      0.00000000	     -3.65084658	    -16.00228065	      0.00000000
      1.64666667	     -6.94187335	      1.76127796	      0.52835115	     -0.39791333	      0.79438520	      0.37325326	     -7.12300320	     -1.82579023	     -2.27418470	     32.83697999	      0.57311342	     35.59686885	      4.33553183	      1.16936651	     25.63677830	      0.44744619	     -7.13185819	     -1.67897077	      5.72503892	     -3.09055402	     -6.84229973	      0.00000000	     -3.71145854	    -16.16063260	      0.00000000
      1.65333333	     -7.59600863	      2.37022989	      0.33628440	     -0.38854524	      0.79316990	      0.37314096	     -5.57448005	     -2.70530936	     -2.27210783	     35.17149810	      0.61385844	     36.25481700	      4.88666554	      1.22957738	     26.78841834	      0.46754610	     -6.25322599	     -2.50429001	      5.84381555	     -4.51714696	     -7.27171060	      0.00000000	     -3.83802584	    -16.47384378	      0.00000000
      1.66000000	     -7.42450569	      2.85604254	      0.34492066	     -0.37921104	      0.79294920	      0.37283019	     -5.05751925	     -3.39842891	     -2.39667770	     37.13956114	      0.64820762	     36.00461014	      5.42606765	      1.33921914	     27.96732786	      0.48812195	     -6.42361863	     -3.12608729	      5.64120656	     -5.75079870	     -7.19347557	      0.00000000	     -3.48870592	    -16.61724623	      0.00000000
      1.66666667	     -7.75839148	      3.52989862	      0.20182406	     -0.36999666	      0.79227050	      0.37274983	     -3.78431643	     -4.33629722	     -2.36012077	     39.38153022	      0.68733737	     36.21310319	      6.01269936	      1.14966479	     28.93373395	      0.50498892	     -5.97171624	     -4.02865134	      5.64881707	     -6.99771878	     -7.48473634	      0.00000000	     -3.07165312	    -16.64116516	      0.00000000
      1.67333333	     -7.49610143	      3.82093867	      0.27590596	     -0.36092930	      0.79240636	      0.37252671	     -3.35965381	     -4.69315307	     -2.13226949	     41.12610080	      0.71778587	     35.77302289	      6.37447667	      1.37147001	     29.94659105	      0.52266661	     -6.33806075	     -4.37623069	      5.37104060	     -7.68202466	     -7.46523730	      0.00000000	     -2.75841773	    -16.75179892	      0.00000000
      1.68000000	     -8.04381980	      4.71467904	      0.03849273	     -0.35192057	      0.79163371	      0.37267476	     -1.60298189	     -5.92715865	     -2.06240276	     43.58792070	      0.76075273	     36.08438844	      7.02584489	      0.66179158	     30.62451955	      0.53449870	     -5.63139814	     -5.58720429	      5.39254568	     -8.94366930	     -7.88208162	      0.00000000	     -1.70640896	    -16.66013173	      0.00000000
      1.68666667	     -7.84775688	      4.93553193	      0.05032875	     -0.34318208	      0.79189888	      0.37251366	     -0.92627628	     -6.23781881	     -1.83147819	     45.36637304	      0.79179258	     35.62211574	      7.24451744	      0.65294711	     31.45170448	      0.54893580	     -5.95569321	     -5.84483412	      5.06386654	     -9.37673336	     -8.00528124	      0.00000000	     -1.29728051	    -16.73751174	      0.00000000
      1.69333333	     -8.57406468	      5.74433861	     -0.23284386	     -0.33444322	      0.79113639	      0.37280292	      1.11828292	     -7.27100568	     -1.34210782	     47.66879779	      0.83197747	     36.01599342	      7.73978393	     -0.15047441	     31.91291668	      0.55698547	     -5.03267212	     -6.93650394	      5.17823991	    -10.02656854	     -8.65210401	      0.00000000	     -0.09869288	    -16.43976196	      0.00000000
      1.70000000	     -8.54375237	      6.00831075	     -0.19640890	     -0.32595433	      0.79141368	      0.37295991	      2.10587129	     -7.57049559	     -1.04571596	     49.42541047	      0.86263615	     35.63959832	      7.90629312	     -0.49808366	     32.55131128	      0.56812756	     -5.20055624	     -7.34045173	      4.79258733	    -10.24527115	     -8.92934211	      0.00000000	      0.55635748	    -16.46787638	      0.00000000
      1.70666667	     -9.13665105	      6.63036741	     -0.39608832	     -0.31746000	      0.79110239	      0.37322074	      4.01567077	     -8.29418062	     -0.45033062	     51.42346132	      0.89750871	     35.75105327	      8.27182283	     -1.14358270	     32.77462995	      0.57202520	     -4.48709688	     -8.15867244	      4.79326167	    -10.33674822	     -9.58835210	      0.00000000	      1.65880713	    -16.02806395	      0.00000000
      1.71333333	     -9.46916585	      6.98366960	     -0.44566176	     -0.30919067	      0.79118741	      0.37352695	      5.59380815	     -8.65441509	      0.01755855	     53.20301514	      0.92856779	     35.59264481	      8.43684970	     -1.67351644	     33.04616630	      0.57676441	     -4.17921713	     -8.67196349	      4.56527361	    -10.23381311	    -10.11596602	      0.00000000	      2.53922597	    -15.74149669	      0.00000000
      1.72000000	     -9.62554757	      7.31282796	     -0.44597333	     -0.30095562	      0.79160489	      0.37383255	      6.95963308	     -8.98081601	      0.40105612	     54.81169495	      0.95664455	     35.17123275	      8.61685725	     -2.19099628	     33.19916931	      0.57943481	     -4.10123698	     -9.15728295	      4.15769963	     -9.96475900	    -10.63394948	      0.00000000	      3.35887290	    -15.55724704	      0.00000000
      1.72666667	    -10.09472146	      7.69491281	     -0.49721394	     -0.29287616	      0.79179142	      0.37413850	      8.78147699	     -9.33966467	      0.92417671	     56.45029497	      0.98524351	     35.00753845	      8.82183366	     -2.70332823	     33.14648359	      0.57851527	     -3.63828514	     -9.68933230	      4.04243363	     -9.60913887	    -11.20618508	      0.00000000	      4.21703928	    -14.96812391	      0.00000000
      1.73333333	    -10.05585055	      7.77068590	     -0.38739199	     -0.28480066	      0.79271635	      0.37442462	      9.88834108	     -9.32555389	      1.20525558	     57.71688469	      1.00734967	     34.26476909	      8.86425058	     -2.92196381	     33.11326699	      0.57793554	     -3.86167631	     -9.87276407	      3.54546350	     -9.26293056	    -11.58841504	      0.00000000	      4.70473665	    -14.93030687	      0.00000000
      1.74000000	    -10.30135114	      8.19190033	     -0.40669927	     -0.27681923	      0.79330851	      0.37484949	     11.48932927	     -9.71255443	      1.64217663	     59.11735809	      1.03179254	     33.76363833	      9.14246294	     -3.45394408	     32.89151753	      0.57406528	     -3.69383011	    -10.48170608	      3.03579211	     -8.50621932	    -12.32521333	      0.00000000	      5.56746927	    -14.60856757	      0.00000000
      1.74666667	    -10.88071510	      8.47993597	     -0.41496833	     -0.26896667	      0.79362449	      0.37527589	     13.52382695	     -9.91474762	      2.12248048	     60.46917745	      1.05538624	     33.59364863	      9.28354069	     -3.90216564	     32.59623386	      0.56891160	     -3.10197555	    -10.92761862	      2.94476680	     -7.95496072	    -12.75564124	      0.00000000	      6.37240076	    -13.72993367	      0.00000000
